PathFileType	4	(X/Y/Z)	pipeline_test.trc
DataRate	CameraRate	NumFrames	NumMarkers	Units	OrigDataRate	OrigDataStartFrame	OrigNumFrames
30.0000	30.0000	7	56	m	30.0000	34	50
Frame#	Time	ACROMION_L			ACROMION_R			ANKLE_LAT_L			ANKLE_LAT_R			ANKLE_MED_L			ANKLE_MED_R			ASIS_L			ASIS_R			C7			CLAV_NOTCH			ELBOW_LAT_L			ELBOW_LAT_R			ELBOW_MED_L			ELBOW_MED_R			GTROCHANTER_L			GTROCHANTER_R			HAND_BACK_L			HAND_BACK_R			HEAD_TOP			HEEL_POST_L			HEEL_POST_R			HUMERUS_LAT_L			HUMERUS_LAT_R			ILIAC_CREST_L			ILIAC_CREST_R			KNEE_LAT_L			KNEE_LAT_R			KNEE_MED_L			KNEE_MED_R			L5			MIDDLE_FINGER_BASE_L			MIDDLE_FINGER_BASE_R			MIDFOOT_UP_L			MIDFOOT_UP_R			PSIS_L			PSIS_R			PUBIC_SYMPH			RIB_LOW_L			RIB_LOW_R			SACRUM			SELLION			STERNUM_LOW			STERNUM_UP			T12			T4			T8			TOE_1ST_BASE_L			TOE_1ST_BASE_R			TOE_5TH_BASE_L			TOE_5TH_BASE_R			TOE_TIP_L			TOE_TIP_R			WRIST_RAD_L			WRIST_RAD_R			WRIST_ULN_L			WRIST_ULN_R		
		X1	Y1	Z1	X2	Y2	Z2	X3	Y3	Z3	X4	Y4	Z4	X5	Y5	Z5	X6	Y6	Z6	X7	Y7	Z7	X8	Y8	Z8	X9	Y9	Z9	X10	Y10	Z10	X11	Y11	Z11	X12	Y12	Z12	X13	Y13	Z13	X14	Y14	Z14	X15	Y15	Z15	X16	Y16	Z16	X17	Y17	Z17	X18	Y18	Z18	X19	Y19	Z19	X20	Y20	Z20	X21	Y21	Z21	X22	Y22	Z22	X23	Y23	Z23	X24	Y24	Z24	X25	Y25	Z25	X26	Y26	Z26	X27	Y27	Z27	X28	Y28	Z28	X29	Y29	Z29	X30	Y30	Z30	X31	Y31	Z31	X32	Y32	Z32	X33	Y33	Z33	X34	Y34	Z34	X35	Y35	Z35	X36	Y36	Z36	X37	Y37	Z37	X38	Y38	Z38	X39	Y39	Z39	X40	Y40	Z40	X41	Y41	Z41	X42	Y42	Z42	X43	Y43	Z43	X44	Y44	Z44	X45	Y45	Z45	X46	Y46	Z46	X47	Y47	Z47	X48	Y48	Z48	X49	Y49	Z49	X50	Y50	Z50	X51	Y51	Z51	X52	Y52	Z52	X53	Y53	Z53	X54	Y54	Z54	X55	Y55	Z55	X56	Y56	Z56

34	1.1000	0.158219	1.285574	-0.134818	-0.237183	1.293326	0.011861	0.104354	0.142699	-0.082547	-0.139726	0.170452	-0.002542	0.104354	0.142699	-0.082547	-0.139726	0.170452	-0.002542	0.132364	0.853918	0.071520	-0.061597	0.855620	0.102879	-0.033207	1.378227	-0.104605	0.030423	1.417182	0.062057	0.203908	1.128810	-0.104633	-0.315352	1.149351	0.074164	0.203908	1.128810	-0.104633	-0.315352	1.149351	0.074164	0.130223	0.976254	-0.128568	-0.124883	0.976763	-0.070460	0.003677	0.852769	-0.208642	-0.656809	1.014741	0.018270	-0.142143	1.597156	-0.128230	0.130776	0.147068	-0.049854	-0.157831	0.179701	0.035644	0.204448	1.264286	-0.053751	-0.208509	1.259805	0.095668	0.099834	1.075069	-0.092237	-0.084541	1.075371	-0.047682	0.184363	0.445818	-0.211617	-0.225710	0.465834	-0.145894	0.111347	0.497504	-0.167666	-0.143224	0.514444	-0.128437	0.010933	1.132210	-0.049062	0.003677	0.852769	-0.208642	-0.656809	1.014741	0.018270	0.199594	0.145659	0.073999	-0.196875	0.193442	0.172084	0.056100	0.897050	-0.145891	-0.062298	0.898929	-0.118264	0.034667	0.837730	0.078720	0.175416	1.302715	-0.042266	-0.131555	1.264833	0.082942	0.003277	0.898272	-0.110745	-0.089496	1.596028	-0.054832	0.079289	1.152019	0.170125	0.079289	1.152019	0.170125	0.010933	1.132210	-0.049062	0.010052	1.223115	-0.052444	0.010052	1.223115	-0.052444	0.199594	0.145659	0.073999	-0.196875	0.193442	0.172084	0.199594	0.145659	0.073999	-0.196875	0.193442	0.172084	0.199594	0.145659	0.073999	-0.196875	0.193442	0.172084	0.039094	0.880163	-0.224729	-0.633891	1.052989	0.030292	0.069574	0.938608	-0.226272	-0.582511	1.093212	0.022751
35	1.1333	0.136608	1.323530	-0.079712	-0.268027	1.385172	0.018798	0.114657	0.319715	-0.142905	-0.159489	0.312598	-0.111180	0.114657	0.319715	-0.142905	-0.159489	0.312598	-0.111180	0.104713	0.906522	0.084367	-0.058567	0.899043	0.094625	-0.041452	1.418518	-0.060689	0.001082	1.479616	0.103657	0.173555	1.164620	-0.057168	-0.381705	1.260869	0.042665	0.173555	1.164620	-0.057168	-0.381705	1.260869	0.042665	0.139151	1.074879	-0.073671	-0.123772	1.055233	-0.052623	-0.003107	0.900576	-0.216035	-0.704540	1.245389	-0.130659	-0.171407	1.605983	-0.118739	0.125057	0.325086	-0.102923	-0.159076	0.320908	-0.069316	0.180335	1.298569	0.001185	-0.259180	1.334685	0.096264	0.095816	1.160964	-0.028341	-0.090861	1.146061	-0.010002	0.268796	0.603525	-0.246683	-0.299122	0.608176	-0.196763	0.185702	0.663397	-0.241921	-0.213815	0.658310	-0.213818	-0.001356	1.202682	0.011616	-0.003107	0.900576	-0.216035	-0.704540	1.245389	-0.130659	0.134938	0.333055	0.036995	-0.137970	0.331586	0.069161	0.076601	1.006151	-0.120706	-0.059658	0.997188	-0.108712	0.022320	0.894485	0.067707	0.152108	1.346422	0.030829	-0.167405	1.331338	0.114801	0.011016	1.002302	-0.100102	-0.125989	1.621981	-0.043118	0.039046	1.209907	0.231160	0.039046	1.209907	0.231160	-0.001356	1.202682	0.011616	-0.008212	1.283771	0.017548	-0.008212	1.283771	0.017548	0.134938	0.333055	0.036995	-0.137970	0.331586	0.069161	0.134938	0.333055	0.036995	-0.137970	0.331586	0.069161	0.134938	0.333055	0.036995	-0.137970	0.331586	0.069161	0.032478	0.929670	-0.223545	-0.680857	1.269683	-0.099546	0.061254	0.988090	-0.215830	-0.624752	1.296914	-0.079694
36	1.1667	0.183554	1.264741	-0.072932	-0.242559	1.289464	-0.001526	0.298490	0.206583	-0.060677	-0.274040	0.206055	-0.020238	0.298490	0.206583	-0.060677	-0.274040	0.206055	-0.020238	0.115580	0.872816	0.076691	-0.053612	0.865454	0.080145	-0.026809	1.350662	-0.108977	0.010669	1.440594	0.047565	0.246276	1.145862	0.025358	-0.341131	1.179636	0.096041	0.246276	1.145862	0.025358	-0.341131	1.179636	0.096041	0.153537	1.023097	-0.101759	-0.110637	1.009809	-0.090996	0.188358	0.797756	0.086764	-0.694500	1.053640	0.095396	-0.105199	1.583146	-0.195656	0.299891	0.220088	-0.020871	-0.275382	0.221928	0.019942	0.208063	1.285122	0.013988	-0.235717	1.296672	0.089702	0.112195	1.114424	-0.059882	-0.076535	1.105157	-0.047973	0.330620	0.519371	-0.194037	-0.281450	0.510558	-0.171060	0.230000	0.541709	-0.203801	-0.181592	0.527211	-0.180058	0.013000	1.161002	-0.024667	0.188358	0.797756	0.086764	-0.694500	1.053640	0.095396	0.286080	0.245330	0.118263	-0.266972	0.251279	0.159676	0.089848	0.945499	-0.145397	-0.042898	0.938954	-0.139884	0.031593	0.853327	0.058523	0.169849	1.309557	-0.002293	-0.152333	1.294915	0.086204	0.025665	0.938845	-0.124375	-0.063283	1.587603	-0.115562	0.049618	1.173124	0.201487	0.049618	1.173124	0.201487	0.013000	1.161002	-0.024667	0.007730	1.237189	-0.014099	0.007730	1.237189	-0.014099	0.286080	0.245330	0.118263	-0.266972	0.251279	0.159676	0.286080	0.245330	0.118263	-0.266972	0.251279	0.159676	0.286080	0.245330	0.118263	-0.266972	0.251279	0.159676	0.216303	0.825920	0.060452	-0.668551	1.091659	0.085923	0.224410	0.882038	0.027847	-0.613106	1.117498	0.061597
37	1.2000	0.283685	1.332251	-0.115676	-0.193378	1.273848	-0.168450	0.262044	0.091074	0.069883	-0.221498	0.087721	0.048557	0.262044	0.091074	0.069883	-0.221498	0.087721	0.048557	0.077592	0.851277	0.123538	-0.102893	0.849509	0.101935	0.047382	1.341265	-0.179277	0.019746	1.397155	-0.007614	0.425896	1.238605	-0.063326	-0.328101	1.180357	-0.104088	0.425896	1.238605	-0.063326	-0.328101	1.180357	-0.104088	0.141259	0.929366	-0.085455	-0.119694	0.929111	-0.115992	0.779782	1.159260	-0.148396	-0.644982	0.998681	-0.170081	0.095756	1.590673	-0.235956	0.273248	0.105767	0.107993	-0.241369	0.102290	0.084149	0.289300	1.304515	-0.026650	-0.223436	1.291297	-0.082680	0.105463	1.032778	-0.077581	-0.082271	1.035340	-0.102745	0.221784	0.401063	-0.058108	-0.182587	0.393856	-0.089101	0.125279	0.415941	-0.037979	-0.093730	0.417959	-0.054757	0.015197	1.093846	-0.081536	0.779782	1.159260	-0.148396	-0.644982	0.998681	-0.170081	0.298500	0.130280	0.245157	-0.294424	0.127168	0.213273	0.071408	0.845777	-0.109816	-0.047537	0.846129	-0.125060	-0.012887	0.834985	0.104867	0.201061	1.275219	-0.021445	-0.146051	1.269204	-0.068769	0.010414	0.852559	-0.094952	0.093410	1.572074	-0.147703	-0.011619	1.160498	0.136669	-0.011619	1.160498	0.136669	0.015197	1.093846	-0.081536	0.034839	1.186118	-0.105941	0.034839	1.186118	-0.105941	0.298500	0.130280	0.245157	-0.294424	0.127168	0.213273	0.298500	0.130280	0.245157	-0.294424	0.127168	0.213273	0.298500	0.130280	0.245157	-0.294424	0.127168	0.213273	0.750091	1.196385	-0.143725	-0.619933	1.035486	-0.184459	0.690271	1.221057	-0.148093	-0.561696	1.062161	-0.195636
38	1.2333	0.260034	1.330940	-0.107866	-0.210458	1.276861	-0.144386	0.282955	0.100148	0.026613	-0.219710	0.094164	0.029810	0.282955	0.100148	0.026613	-0.219710	0.094164	0.029810	0.085341	0.852240	0.113616	-0.095699	0.847862	0.102613	0.025747	1.356692	-0.165760	0.004539	1.402855	0.009873	0.395689	1.228199	-0.053596	-0.331608	1.170917	-0.073452	0.395689	1.228199	-0.053596	-0.331608	1.170917	-0.073452	0.135600	0.938819	-0.096375	-0.126932	0.936647	-0.110606	0.725555	1.108712	-0.180361	-0.636970	0.967422	-0.130560	0.098511	1.595918	-0.213098	0.295764	0.113935	0.064522	-0.236453	0.107566	0.067397	0.268581	1.310931	-0.017335	-0.235155	1.289157	-0.055669	0.099124	1.041923	-0.082388	-0.089844	1.042424	-0.096208	0.233000	0.413251	-0.089811	-0.198775	0.403924	-0.104050	0.137103	0.425969	-0.064952	-0.107331	0.428533	-0.077396	0.007654	1.102014	-0.078784	0.725555	1.108712	-0.180361	-0.636970	0.967422	-0.130560	0.327077	0.135082	0.201020	-0.278275	0.128884	0.201534	0.065496	0.854783	-0.119256	-0.055053	0.854690	-0.127536	-0.005818	0.833999	0.099089	0.185186	1.286767	-0.014662	-0.160605	1.273500	-0.050843	0.005015	0.859765	-0.100873	0.094609	1.574803	-0.125463	-0.011508	1.158839	0.143059	-0.011508	1.158839	0.143059	0.007654	1.102014	-0.078784	0.019851	1.196933	-0.100431	0.019851	1.196933	-0.100431	0.327077	0.135082	0.201020	-0.278275	0.128884	0.201534	0.327077	0.135082	0.201020	-0.278275	0.128884	0.201534	0.327077	0.135082	0.201020	-0.278275	0.128884	0.201534	0.699975	1.148799	-0.175362	-0.615811	1.006811	-0.144311	0.642279	1.178281	-0.173179	-0.560663	1.038590	-0.157261
39	1.2667	0.285331	1.337538	-0.091444	-0.182100	1.294351	-0.150239	0.115935	0.086473	0.097921	-0.088307	0.100142	0.113167	0.115935	0.086473	0.097921	-0.088307	0.100142	0.113167	0.083181	0.857543	0.125786	-0.107364	0.858903	0.104438	0.053206	1.370937	-0.154689	0.023428	1.404825	0.022174	0.416466	1.224895	-0.052553	-0.289661	1.171952	-0.090215	0.416466	1.224895	-0.052553	-0.289661	1.171952	-0.090215	0.140451	0.936204	-0.082250	-0.119652	0.938550	-0.112060	0.752184	1.122812	-0.176604	-0.538965	0.914308	-0.178252	0.085807	1.625678	-0.186790	0.136716	0.099579	0.132474	-0.115486	0.112481	0.144586	0.288927	1.298639	-0.005274	-0.206375	1.294020	-0.059647	0.106512	1.040574	-0.073656	-0.081516	1.045592	-0.098378	0.144295	0.386826	-0.055275	-0.116095	0.388306	-0.063087	0.059891	0.428317	-0.025137	-0.040710	0.437366	-0.026277	0.016036	1.104626	-0.076715	0.752184	1.122812	-0.176604	-0.538965	0.914308	-0.178252	0.188894	0.124408	0.261762	-0.188170	0.136769	0.264061	0.067034	0.854596	-0.105533	-0.047131	0.856202	-0.119258	-0.013821	0.846358	0.111186	0.200587	1.277305	-0.003324	-0.141399	1.286232	-0.055562	0.008238	0.864498	-0.088274	0.087623	1.599049	-0.100571	-0.010045	1.162591	0.144566	-0.010045	1.162591	0.144566	0.016036	1.104626	-0.076715	0.034712	1.202256	-0.099313	0.034712	1.202256	-0.099313	0.188894	0.124408	0.261762	-0.188170	0.136769	0.264061	0.188894	0.124408	0.261762	-0.188170	0.136769	0.264061	0.188894	0.124408	0.261762	-0.188170	0.136769	0.264061	0.727306	1.161770	-0.164585	-0.527162	0.958677	-0.186919	0.670330	1.192910	-0.160621	-0.480400	1.003120	-0.194756
40	1.3000	0.218965	1.238795	-0.126950	-0.206045	1.285254	-0.085745	0.141104	0.142354	-0.023395	-0.137197	0.195965	0.051819	0.141104	0.142354	-0.023395	-0.137197	0.195965	0.051819	0.106950	0.869820	0.076852	-0.087136	0.870459	0.071021	0.017062	1.346596	-0.175803	0.041617	1.426930	-0.012391	0.265538	1.100072	-0.041946	-0.283482	1.158484	0.009201	0.265538	1.100072	-0.041946	-0.283482	1.158484	0.009201	0.144303	0.977733	-0.123328	-0.117894	0.981707	-0.125860	0.286644	0.738028	-0.073694	-0.611162	0.985574	-0.049665	-0.021549	1.583988	-0.267791	0.164542	0.151645	0.010494	-0.154793	0.213476	0.087177	0.233246	1.243723	-0.034284	-0.196718	1.288381	0.006769	0.109881	1.077823	-0.100897	-0.079691	1.083033	-0.102335	0.199072	0.442221	-0.170611	-0.218059	0.456199	-0.152762	0.117622	0.490089	-0.136781	-0.133520	0.506890	-0.145618	0.015843	1.140106	-0.082728	0.286644	0.738028	-0.073694	-0.611162	0.985574	-0.049665	0.223710	0.166837	0.138945	-0.193550	0.257209	0.217619	0.071195	0.897618	-0.151531	-0.051053	0.900728	-0.152335	0.007633	0.853800	0.066008	0.189464	1.272035	-0.040985	-0.137881	1.300497	-0.000707	0.010149	0.900739	-0.128861	0.008618	1.583804	-0.182815	0.025985	1.170773	0.146389	0.025985	1.170773	0.146389	0.015843	1.140106	-0.082728	0.019977	1.223614	-0.082340	0.019977	1.223614	-0.082340	0.223710	0.166837	0.138945	-0.193550	0.257209	0.217619	0.223710	0.166837	0.138945	-0.193550	0.257209	0.217619	0.223710	0.166837	0.138945	-0.193550	0.257209	0.217619	0.310124	0.777610	-0.087058	-0.590087	1.027113	-0.052061	0.308398	0.840821	-0.103805	-0.536367	1.062285	-0.065623
